<?xml version="1.0" encoding="UTF-8"?>
<svg id="Lag_2" data-name="Lag 2" xmlns="http://www.w3.org/2000/svg" viewBox="0 0 232.71 193.1">
  <defs>
    <style>
      .cls-1 {
        stroke-width: 3px;
      }

      .cls-1, .cls-2 {
        fill: none;
        stroke: #1d1d1b;
        stroke-miterlimit: 10;
      }

      .cls-3 {
        font-size: 14px;
      }

      .cls-3, .cls-4 {
        font-family: JosefinSlab-Regular, 'Josefin Slab';
      }

      .cls-3, .cls-4, .cls-5 {
        fill: #1d1d1b;
      }

      .cls-4 {
        font-size: 10px;
      }

      .cls-5 {
        stroke-width: 0px;
      }
    </style>
  </defs>
  <g id="Lag_1-2" data-name="Lag 1">
    <text class="cls-3" transform="translate(51.22 11.9)"><tspan x="0" y="0">Tid estimering</tspan></text>
    <circle class="cls-1" cx="86.79" cy="45.78" r="18.5"/>
    <text class="cls-4" transform="translate(63.79 90.18)"><tspan x="0" y="0">30-40 min</tspan></text>
    <text class="cls-3" transform="translate(55.23 148.97)"><tspan x="0" y="0">Sværhedsgrad</tspan></text>
    <ellipse class="cls-2" cx="95.17" cy="173.01" rx="65" ry="7.5"/>
    <text class="cls-4" transform="translate(0 176.86)"><tspan x="0" y="0">Nemt</tspan></text>
    <text class="cls-4" transform="translate(169.24 176.97)"><tspan x="0" y="0">Svært</tspan></text>
    <path class="cls-5" d="m106.68,42.38c-1.25-8.66-9.5-15.13-18.09-15.04-2.67.03-5.05,2.27-5,5,.06,3.67.33,7.31.8,10.95,0,.02,0,.03,0,.04-.1.39-.18.8-.18,1.24,0,2.56,2.29,5.19,5,5,4.21-.29,8.42-.58,12.63-.86,3.54-.24,5.31-2.98,4.82-6.33Z"/>
    <path class="cls-5" d="m90.22,35.08c1.29-3.3-.84-6.91-4-8.05-1.62-.58-3.08.91-3.16,2.41-.35,6.35.03,12.69,1.05,18.97.22,1.33,1.88,2.08,3.08,1.75,1.42-.39,1.96-1.74,1.75-3.08-.94-5.82-1.19-11.75-.87-17.64l-3.16,2.41c-.39-.14.05.03.14.1.21.15-.17-.2.13.12s-.05-.07.12.14c.05.06.3.54.12.14.06.14.09.3.14.45.23.63,0-.22.03.15.02.2-.04.51.03.15-.04.23-.12.45-.21.67-.49,1.26.54,2.74,1.75,3.08,1.42.39,2.58-.48,3.08-1.75h0Z"/>
    <path class="cls-5" d="m65.82,177.59c.37-2.97.17-5.98-.47-8.89-.28-1.28-1.84-2.15-3.08-1.75-1.35.44-2.05,1.7-1.75,3.08.14.66.26,1.33.36,2l-.09-.66c.27,2.07.28,4.16.03,6.23-.07.59.33,1.37.73,1.77.43.43,1.15.76,1.77.73s1.32-.24,1.77-.73c.48-.52.65-1.07.73-1.77h0Z"/>
    <path class="cls-5" d="m60.22,168.16l-4.28-.02c-2.75-.01-3.48,4.33-.66,4.91,3.2.66,6.31-.6,8.07-3.37,1.23-1.93-.79-4.13-2.82-3.67-8.76,1.98-17.62,3.41-26.56,4.24-1.24.11-2.3.86-2.46,2.17-.14,1.14.55,2.52,1.79,2.74,4.51.82,9.03,1.64,13.54,2.46,2.26.41,4.51.82,6.77,1.23s4.43,1.03,6.62,1.19c2.41.17,3.79-2.4,3.28-4.54s-2.43-3.35-4.54-3.58-4.31-.03-6.43,0c-2.27.03-4.54.06-6.8.09-3.21.04-3.22,5.04,0,5,2.75-.04,5.51-.07,8.26-.11,1.26-.02,2.53-.06,3.79-.05.1,0,1,.12,1.02.07.02-.03-.18-.33-.19-.42-.01-.2.76-1.14.17-.68l2.43-.64c-8.87-1.61-17.73-3.22-26.6-4.83l-.66,4.91c9.38-.87,18.7-2.33,27.89-4.42l-2.82-3.67c-.51.8-1.5,1.26-2.42,1.07l-.66,4.91,4.28.02c3.22.02,3.22-4.98,0-5h0Z"/>
    <path class="cls-5" d="m75.08,177.39c1.1-3.57,1.75-7.87-1.41-10.64-1.49-1.31-3.31-1.77-5.24-1.36-.73.16-1.4.49-2.09.76-.36.14-.71.27-1.09.35.22-.02.17-.03-.14-.02.23,0,.19-.03-.12-.11-1.44-.55-3.3.89-3.16,2.41s.27,3.02.4,4.52c.12,1.4.06,3.04.52,4.38.57,1.69,2.05,2.28,3.7,2.41,1.54.12,3.09.16,4.64.24,1.1.06,2.11-.82,2.41-1.84.79-2.66.35-5.68-1.29-7.94-1.08-1.47-3.29-1.74-4.32,0-.88,1.5-1.33,3.19-1.26,4.92l3.76-2.16c-5.3-2.29-11.05-3.27-16.8-2.53-1.34.17-2.5,1.03-2.5,2.5,0,1.22,1.15,2.67,2.5,2.5,4.82-.62,9.79-.09,14.28,1.85,1.62.7,3.85-.07,3.76-2.16-.04-.92.1-1.59.57-2.4h-4.32c.97,1.33,1.23,2.58.79,4.08l2.41-1.84c-1.1-.06-2.19-.11-3.29-.17-.4-.02-1.1-.2-1.48-.08-.64.21,1.51.71,1.17,1.1-.03.03-.05-.55-.06-.72-.2-2.23-.4-4.46-.59-6.69l-3.16,2.41c1.3.5,2.74.27,4-.23.56-.22,1.1-.48,1.67-.65,0,0,.81-.13.47-.11.26-.02.26,0,.34.08.04.04.39.37.5.54.21.34.34.58.4,1.14.13,1.38-.38,2.79-.78,4.09-.95,3.08,3.87,4.4,4.82,1.33h0Z"/>
    <path class="cls-5" d="m66.81,175.69c3.22,0,3.22-5,0-5s-3.22,5,0,5h0Z"/>
    <path class="cls-5" d="m87.42,178.16c.44-3.31.32-7.19-2.02-9.82-1.35-1.52-3.29-2.09-5.26-2.18-.8-.04-1.6,0-2.4-.07-.63-.05.47.12,0,0-.12-.03-.44-.17-.56-.15.37.17.44.2.21.08-.08-.04-.17-.09-.24-.14.31.25.36.29.17.12-.07-.07-.14-.14-.21-.22l-1.77,4.27c3,0,6,0,9,0l-2.5-2.5c.16,3.49.32,6.99.48,10.48l2.5-2.5c-3.82-.44-7.66-.6-11.51-.48l2.41,1.84s-.1-.46-.13-.47c.04.4.05.46.03.19v-.16c0-.09.06-.41.02-.48-.06.4-.06.46,0,.19.02-.08.04-.16.06-.23.02-.08.05-.16.07-.23.08-.2.08-.2,0,0-.08.2-.08.2.01,0,.04-.07.08-.14.12-.22.04-.07.34-.57.13-.22s.11-.11.18-.19c.06-.06.12-.12.18-.17.16-.14.16-.15,0-.02-.17.12-.17.12,0,0,.1-.07.2-.13.3-.19.15-.09.34-.22.51-.26l-.25.11c.12-.04.24-.08.36-.12.18-.05.37-.09.55-.14.5-.14-.48,0,.09-.02.39-.02.76-.04,1.15-.02.1,0,.19.01.29.02.19.02.13,0-.19-.03.02-.03.53.09.57.1.19.04.37.09.55.14.22.07.23.08.04,0-.3-.09-.52-.29-.67-.6-.2-.35-.26-.83-.15-1.22.18-.38.22-.48.12-.31-.1.16-.03.08.19-.23-.07.07-.14.14-.21.2l.26-.21c-.09.06-.17.1-.27.15l.31-.14c-.1.03-.19.06-.29.08l.37-.06c-.03-.07-.62,0-.06.03-.38-.02-.78-.14-1.16-.2-1.37-.22-2.48-.16-3.75.42-1.2.54-1.58,2.37-.9,3.42.8,1.24,2.14,1.47,3.42.9-.01,0-.43.17-.16.09s-.2.04-.21.02c0,.01.56,0,.56.01,0,.01-.49-.08-.19-.03.13.02.26.04.39.07.23.04.45.08.68.12,1.24.19,2.3.17,3.45-.38,2.22-1.07,3.28-4.04,1.38-5.93-.78-.78-1.87-1.1-2.93-1.26-1-.16-1.96-.23-2.96-.11-1.98.25-3.93,1.02-5.23,2.61-1.44,1.76-2.18,4.09-1.45,6.32.33,1.03,1.28,1.87,2.41,1.84,3.84-.11,7.69.05,11.51.48,1.3.15,2.56-1.27,2.5-2.5-.16-3.49-.32-6.99-.48-10.48-.06-1.35-1.1-2.5-2.5-2.5-3,0-6,0-9,0-1,0-1.9.63-2.28,1.54-.4.96-.17,1.97.52,2.73,1.38,1.54,3.43,1.8,5.37,1.82.38,0,.76,0,1.14.02.1,0,.57.1.64.04-.12.09-.6-.11-.04,0,.2.04.4.11.6.16.47.13-.49-.27-.08-.03.13.08.32.23.46.28-.33-.26-.39-.31-.19-.15.05.04.1.09.15.13.1.1.2.25.31.33-.25-.34-.3-.4-.15-.19.05.07.1.15.15.22.07.11.14.23.2.35.31.6-.12-.39.03.03.11.31.21.63.29.95.03.14.06.29.09.43.02.1.03.19.05.29.04.27.03.2-.03-.22-.03.33.07.73.08,1.06.01.36.01.72,0,1.08-.02.75-.09,1.5-.19,2.24-.08.59.34,1.37.73,1.77.43.43,1.15.76,1.77.73s1.32-.24,1.77-.73c.48-.52.64-1.07.73-1.77h0Z"/>
  </g>
</svg>