<?xml version="1.0" encoding="UTF-8"?>
<svg id="Lag_2" data-name="Lag 2" xmlns="http://www.w3.org/2000/svg" viewBox="0 0 232.71 193.1">
  <defs>
    <style>
      .cls-1 {
        stroke-width: 3px;
      }

      .cls-1, .cls-2 {
        fill: none;
        stroke: #1d1d1b;
        stroke-miterlimit: 10;
      }

      .cls-3 {
        font-size: 14px;
      }

      .cls-3, .cls-4 {
        font-family: JosefinSlab-Regular, 'Josefin Slab';
      }

      .cls-3, .cls-4, .cls-5 {
        fill: #1d1d1b;
      }

      .cls-4 {
        font-size: 10px;
      }

      .cls-5 {
        stroke-width: 0px;
      }
    </style>
  </defs>
  <g id="Lag_1-2" data-name="Lag 1">
    <text class="cls-3" transform="translate(51.22 11.9)"><tspan x="0" y="0">Tid estimering</tspan></text>
    <circle class="cls-1" cx="86.79" cy="45.78" r="18.5"/>
    <text class="cls-4" transform="translate(63.79 90.18)"><tspan x="0" y="0">15-20 min</tspan></text>
    <text class="cls-3" transform="translate(55.23 148.97)"><tspan x="0" y="0">Sværhedsgrad</tspan></text>
    <ellipse class="cls-2" cx="95.17" cy="173.01" rx="65" ry="7.5"/>
    <text class="cls-4" transform="translate(0 176.86)"><tspan x="0" y="0">Nemt</tspan></text>
    <text class="cls-4" transform="translate(169.24 176.97)"><tspan x="0" y="0">Svært</tspan></text>
    <path class="cls-5" d="m106.68,42.38c-1.25-8.66-9.5-15.13-18.09-15.04-2.67.03-5.05,2.27-5,5,.06,3.67.33,7.31.8,10.95,0,.02,0,.03,0,.04-.1.39-.18.8-.18,1.24,0,2.56,2.29,5.19,5,5,4.21-.29,8.42-.58,12.63-.86,3.54-.24,5.31-2.98,4.82-6.33Z"/>
    <path class="cls-5" d="m90.22,35.08c1.29-3.3-.84-6.91-4-8.05-1.62-.58-3.08.91-3.16,2.41-.35,6.35.03,12.69,1.05,18.97.22,1.33,1.88,2.08,3.08,1.75,1.42-.39,1.96-1.74,1.75-3.08-.94-5.82-1.19-11.75-.87-17.64l-3.16,2.41c-.39-.14.05.03.14.1.21.15-.17-.2.13.12s-.05-.07.12.14c.05.06.3.54.12.14.06.14.09.3.14.45.23.63,0-.22.03.15.02.2-.04.51.03.15-.04.23-.12.45-.21.67-.49,1.26.54,2.74,1.75,3.08,1.42.39,2.58-.48,3.08-1.75h0Z"/>
    <path class="cls-5" d="m65.82,177.59c.37-2.97.17-5.98-.47-8.89-.28-1.28-1.84-2.15-3.08-1.75-1.35.44-2.05,1.7-1.75,3.08.14.66.26,1.33.36,2l-.09-.66c.27,2.07.28,4.16.03,6.23-.07.59.33,1.37.73,1.77.43.43,1.15.76,1.77.73s1.32-.24,1.77-.73c.48-.52.65-1.07.73-1.77h0Z"/>
    <path class="cls-5" d="m60.22,168.16l-4.28-.02c-2.75-.01-3.48,4.33-.66,4.91,3.2.66,6.31-.6,8.07-3.37,1.23-1.93-.79-4.13-2.82-3.67-8.76,1.98-17.62,3.41-26.56,4.24-1.24.11-2.3.86-2.46,2.17-.14,1.14.55,2.52,1.79,2.74,4.51.82,9.03,1.64,13.54,2.46,2.26.41,4.51.82,6.77,1.23s4.43,1.03,6.62,1.19c2.41.17,3.79-2.4,3.28-4.54s-2.43-3.35-4.54-3.58-4.31-.03-6.43,0c-2.27.03-4.54.06-6.8.09-3.21.04-3.22,5.04,0,5,2.75-.04,5.51-.07,8.26-.11,1.26-.02,2.53-.06,3.79-.05.1,0,1,.12,1.02.07.02-.03-.18-.33-.19-.42-.01-.2.76-1.14.17-.68l2.43-.64c-8.87-1.61-17.73-3.22-26.6-4.83l-.66,4.91c9.38-.87,18.7-2.33,27.89-4.42l-2.82-3.67c-.51.8-1.5,1.26-2.42,1.07l-.66,4.91,4.28.02c3.22.02,3.22-4.98,0-5h0Z"/>
  </g>
</svg>