<?xml version="1.0" encoding="utf-8"?>
<!-- Generator: Adobe Illustrator 27.9.0, SVG Export Plug-In . SVG Version: 6.00 Build 0)  -->
<svg version="1.1" id="Lag_1" xmlns="http://www.w3.org/2000/svg" xmlns:xlink="http://www.w3.org/1999/xlink" x="0px" y="0px"
	 viewBox="0 0 1920 1080" style="enable-background:new 0 0 1920 1080;" xml:space="preserve">
<style type="text/css">
	.st0{opacity:0.44;}
	.st1{opacity:0.9;}
	.st2{fill:#CBDBCA;}
	.st3{fill:#DDE7DC;}
	.st4{fill:#E5EDE5;}
	.st5{fill:#E1EAE0;}
	.st6{fill:#D1DFD0;}
	.st7{fill:#D4E1D3;}
	.st8{fill:#BACFB9;}
	.st9{fill:#C1D4C0;}
	.st10{fill:#C5D7C4;}
	.st11{fill:#F0F5F0;}
	.st12{fill:#ECF2EC;}
</style>
<g class="st0">
	<g>
		<g>
			<g class="st1">
				<g class="st1">
					<path class="st2" d="M946.96,467.64c-10.37,7.19-20.58,14.71-30.61,22.51c-2.52,1.91-5.02,3.98-7.52,5.97l-7.52,6.03
						c-2.52,1.98-4.99,4.09-7.47,6.16l-7.44,6.23c-19.78,16.77-39.17,34.47-58.51,52.73c-19.34,18.26-38.62,37.08-58.22,56.08
						l-14.77,14.28l-3.71,3.57c-1.34,1.28-2.05,2.01-4.66,4.43l-13.13,12.3l-6.58,6.16l-3.29,3.08l-1.65,1.54l-1.74,1.57
						l-13.97,12.59c-4.66,4.18-9.33,8.47-14,12.56l-14.03,11.81c4.05-3.8,8.1-7.59,12.15-11.38c1-0.95,2-1.86,3-2.84l2.99-2.99
						l5.93-5.93c3.9-3.91,7.8-7.81,11.69-11.72l5.76-5.78c1.88-1.91,3.62-3.78,5.43-5.65l10.64-11.15l5.25-5.51l2.61-2.74l1.3-1.36
						l0.32-0.34l0.19-0.22l0.37-0.43l11.78-13.68c26.96-30.23,57.3-58.37,89.43-84.74c16.08-13.13,32.58-25.83,49.31-38.08
						c8.41-5.99,16.82-12.14,25.21-17.93C929.94,478.98,938.44,473.28,946.96,467.64z"/>
					<path class="st2" d="M1086.09,403.88c-0.14,0.05-0.28,0.1-0.46,0.18c-1.95-0.1-3.91-0.07-5.86-0.01
						c-8.6,0.35-17.03,2.14-24.75,4.88c-0.97,0.34-1.92,0.7-2.86,1.06l-3.26,1.33l-8.56,3.64c-1.96,0.81-3.89,1.71-5.83,2.59
						c-1.94,0.89-3.89,1.73-5.81,2.65c-15.45,7.26-30.67,15.29-45.56,24.17c2.22-1.41,4.44-2.8,6.67-4.16
						c2.22-1.38,4.44-2.76,6.67-4.15c13.49-8.6,27.33-16.55,41.56-23.53l5.35-2.56l2.55-1.22l1.07-0.57l3.87-2.02
						c2.22-1.15,4.61-2.19,7.06-3.14c4.91-1.85,10.14-3.18,14.84-3.63c4.69-0.43,8.83,0.02,11.23,1.49
						C1085.2,401.66,1085.96,402.61,1086.09,403.88z"/>
					<path class="st3" d="M1225.19,837.94c18.56-41.34,40.62-85.49,63.09-130.66c22.5-45.14,45.38-91.29,66.03-136.27l0.67-0.93
						c0.04-0.06,0.15-0.2,0.13-0.19l0-0.03l0-0.06c0.01-0.05-0.03-0.07-0.04-0.09l2.06,1.5c3.43,2.43,7.62,5.01,11.52,7
						c3.92,2,7.71,3.4,10.67,4.01c2.97,0.65,5.02,0.42,5.57,0.23c0.03-0.01,0.08-0.02,0.12-0.03c0.03-0.01,0.16-0.07,0.06-0.02
						c-0.05,0.02-0.09,0.05-0.13,0.07l-0.05,0.03c0,0.01-0.02,0.02-0.11,0.07c-0.13,0.08-0.25,0.16-0.35,0.24l-0.15,0.13l-0.07,0.07
						l-0.03,0.03l-0.02,0.02l-0.01,0.01c0.87-0.77,0.24-0.21,0.44-0.39c-0.01,0.01-0.01,0.01-0.01,0.01l0,0l-0.08,0.08
						c-0.05,0.06-0.08,0.1-0.12,0.16c-0.09,0.11-0.17,0.23-0.23,0.34l-0.26,0.44c-0.1,0.18-0.17,0.34-0.26,0.54
						c-0.12,0.24-0.23,0.49-0.33,0.73l-0.31,0.85c-0.11,0.32-0.2,0.62-0.29,0.95c-0.12,0.39-0.23,0.78-0.32,1.16l-0.12,0.58
						l-0.16,0.7c-0.1,0.47-0.18,0.93-0.24,1.4c-0.09,0.52-0.19,1.09-0.25,1.64l-0.19,1.75c-0.07,0.65-0.12,1.29-0.16,1.94l-0.13,2.2
						l-0.04,1.14c-0.01,0.4,0,0.71-0.03,1.21c-0.03,0.91-0.04,1.83-0.04,2.74l0.03,3.07c0.02,1.12,0.05,2.25,0.11,3.36l0.07,2.07
						l0.1,2.17l0.13,2.17l0.08,1.12l0.03,0.59l-0.01,0.01c-0.03,0.04-0.02,0.08-0.15,0.13c-0.06,0.03-0.07,0.04-0.17,0.07
						l-0.46,0.11c-9.91,2.2-19.18,4.95-27.56,6.85c0.12,0.11-1.61,0.72-4.86,1.71c-0.81,0.25-1.72,0.52-2.71,0.82
						c-0.99,0.34-2.07,0.71-3.23,1.1c-2.32,0.81-4.98,1.59-7.91,2.74c-11.74,4.25-28.01,11.11-45.98,21.06
						c-8.99,4.95-18.42,10.51-27.97,16.6c-9.55,6.1-19.23,12.62-28.74,19.25c-19.01,13.27-37.45,26.95-52.76,37.93
						c14.09-17.97,26.24-35.25,37.11-51.64c10.86-16.41,20.46-32.04,29.08-46.98c-13.46,6.28-32.92,17.24-49.22,26.46
						c-16.31,9.19-29.65,16.24-31.36,13.88c-0.15-6.66,2.31-14.61,6.94-23.51c4.62-8.9,11.39-18.78,19.99-29.24
						c8.6-10.46,19.03-21.52,31.13-32.62c12.1-11.1,25.89-22.23,41.11-32.67c1.27-0.5,3.55-1.4,6.74-2.65
						c3.24-1.19,7.44-2.68,12.46-4.45c10.18-3.35,23.91-7.61,40.87-11.19c4.26-0.85,8.64-1.83,13.3-2.51
						c2.31-0.37,4.67-0.75,7.06-1.13c2.38-0.4,4.86-0.62,7.34-0.94c2.49-0.29,5.01-0.58,7.57-0.88c2.57-0.2,5.18-0.4,7.83-0.6
						c1.32-0.1,2.65-0.19,3.98-0.29c1.05-0.08,3.33-0.24,5.83-0.31c2.54-0.07,5.53-0.07,9.19,0.23c3.65,0.31,8.07,0.91,13.44,2.48
						c1.33,0.39,2.81,0.89,4.19,1.4c1.43,0.53,3.02,1.21,4.5,1.9c1.53,0.71,3.18,1.6,4.72,2.49c1.59,0.93,3.25,2.03,4.8,3.15
						c1.59,1.16,3.18,2.47,4.68,3.81c1.51,1.37,2.96,2.86,4.34,4.38c1.35,1.53,2.61,3.15,3.8,4.81c0.6,0.83,1.17,1.68,1.73,2.53
						c0.56,0.9,1.12,1.86,1.64,2.81c1.05,1.92,2.02,3.88,2.85,5.89c0.81,2.02,1.52,4.11,2.12,6.21c0.15,0.52,0.3,1.06,0.43,1.57
						l0.34,1.51c0.21,1.01,0.41,2.03,0.57,3.05c0.17,1.02,0.31,2.05,0.43,3.08c0.1,0.98,0.16,1.88,0.21,2.83
						c0.05,0.94,0.08,1.87,0.09,2.81l0,1.4l-0.01,0.7l-0.03,0.62c-0.08,1.64-0.22,3.29-0.42,4.93l-0.16,1.21l-0.18,1.06
						c-0.12,0.71-0.26,1.41-0.4,2.11c-0.14,0.7-0.3,1.41-0.46,2.1l-0.12,0.52l-0.12,0.45l-0.25,0.9c-0.34,1.2-0.7,2.4-1.09,3.58
						c-0.37,1.07-0.75,2.06-1.15,3.09l-0.62,1.52l-0.6,1.33c-0.4,0.88-0.82,1.76-1.25,2.62l-1.23,2.31l-0.64,1.14l-0.61,1.03
						l-1.26,2.04l-1.23,1.85l-0.63,0.92l-0.61,0.85l-1.24,1.68c-0.81,1.04-1.65,2.12-2.47,3.08l-1.19,1.39l-0.64,0.7l-1.28,1.4
						c-6.85,7.46-13.92,15.17-21.16,23.04c-28.95,31.46-60.79,65.31-91.34,97.64C1277.95,781.37,1248.7,812.2,1225.19,837.94z"/>
					<path class="st4" d="M1113.82,993.16c4.46,0.33,9.12,0.24,14.05-0.19c2.46-0.24,5-0.52,7.61-0.91l1.97-0.29
						c0.69-0.1,1.23-0.19,2.21-0.38l4.09-0.92l4.15-0.99l4.17-1.01l4.23-1.08c2.79-0.68,5.74-1.53,8.62-2.3
						c5.8-1.57,11.6-3.13,17.36-4.68c5.78-1.54,11.53-3.08,17.23-4.6c5.69-1.62,11.33-3.23,16.89-4.82
						c11.14-3.17,22.01-6.15,32.36-9.33c10.37-3.1,20.27-6.05,29.5-8.81c9.22-2.88,17.79-5.56,25.52-7.98
						c3.86-1.22,7.52-2.37,10.94-3.45c3.41-1.12,6.59-2.17,9.52-3.14c-5.43,5.73-10.99,11.38-16.75,17.05
						c-5.75,5.67-11.7,11.37-17.92,17.1c-3.1,2.88-6.3,5.71-9.58,8.53c-3.28,2.83-6.64,5.67-10.09,8.52s-6.99,5.71-10.63,8.57
						c-3.65,2.86-7.37,5.78-11.27,8.56c15.17-2.37,27.82-4.35,40.45-6.32c6.34-1.01,12.56-2.26,19.06-3.69
						c6.5-1.44,13.24-3.13,20.5-5.22c-6.48,4.8-12.95,9.6-19.37,14.36c-10.94,4.56-22.1,8.83-33.15,13.22l-16.62,6.55l-16.77,6.29
						c-11.19,4.18-22.31,8.48-33.66,12.35l-16.95,5.96c-5.66,1.98-11.21,3.99-17.17,5.92c-2.92,0.98-5.97,1.9-8.95,2.86
						c-1.48,0.48-3.05,0.92-4.57,1.38l-2.36,0.7c-1.08,0.32-2.11,0.62-3.26,0.93c-4.52,1.17-9.06,2.36-13.6,3.48l-6.84,1.44
						l-3.42,0.72c-1.14,0.25-2.28,0.48-3.42,0.65c-18.25,3.34-36.34,4.31-53.16,2.75c-2.1-0.21-4.23-0.35-6.3-0.63l-6.1-1.02
						c-4.13-0.58-8.01-1.6-11.92-2.56c-0.97-0.25-1.96-0.48-2.92-0.75l-2.82-0.92l-5.64-1.84l-1.41-0.46l-1.35-0.56l-2.69-1.12
						l-5.39-2.25l-5-2.73l-2.5-1.37l-1.25-0.68c-0.42-0.22-0.77-0.52-1.16-0.78l-4.54-3.21c-1.51-1.07-3.06-2.11-4.42-3.33
						c-2.78-2.38-5.41-4.98-7.78-7.99c-1.19-1.5-2.29-3.11-3.3-4.8c-0.5-0.85-0.95-1.73-1.39-2.62c-0.47-0.86-0.87-1.78-1.24-2.68
						c-0.79-2.21-1.49-4.37-1.99-6.48c-0.47-2.13-0.76-4.2-0.93-6.22c-0.29-4.07-0.28-7.85,0.25-11.88l0.84-6.08l0.42-3.04
						c0.04-0.49,0.22-1.05,0.35-1.58l0.42-1.61l1.69-6.46l0.42-1.61c0.14-0.54,0.26-1.07,0.52-1.64l1.34-3.36l2.68-6.73
						c0.23-0.56,0.43-1.12,0.69-1.69l0.9-1.71l1.79-3.43l3.59-6.86c1.3-2.29,2.71-4.58,4.06-6.88c1.38-2.29,2.68-4.6,4.14-6.89
						l4.54-6.87l2.27-3.44c0.38-0.57,0.75-1.15,1.15-1.72l1.24-1.7l4.97-6.8c6.68-9.07,13.99-17.94,21.52-26.66l1.4-1.65l1.16-1.31
						l1.84-2.08l3.67-4.16l7.38-8.13c9.85-10.69,19.7-20.89,29.31-30.84c-0.14,1.11-0.98,3.38-2.45,6.67
						c-1.46,3.27-3.53,7.54-6.1,12.66c-2.59,5.12-5.62,11.11-8.98,17.75c-1.67,3.34-3.43,6.85-5.25,10.5
						c-0.91,1.81-1.82,3.7-2.75,5.61c-0.46,0.95-0.93,1.92-1.39,2.89c-0.23,0.48-0.47,0.97-0.7,1.46l-0.35,0.73l-0.41,0.8
						c-5.34,9.84-10.33,19.63-14.09,29.08c-0.48,1.16-0.96,2.32-1.43,3.49c-0.46,1.16-0.85,2.33-1.27,3.48
						c-0.79,2.24-1.58,4.49-2.38,6.75c-1.33,4.48-2.7,8.7-3.62,12.83l-0.73,3.03c-0.25,0.99-0.47,1.98-0.64,2.97
						c-0.36,1.92-0.73,3.83-1.09,5.74c-0.2,0.92-0.31,1.86-0.46,2.78c-0.19,0.93-0.19,1.81-0.23,2.68l-0.07,2.56
						c-0.01,0.84,0.05,1.69,0.09,2.5c0.09,1.63,0.23,3.18,0.4,4.66c0.22,1.49,0.53,2.94,1.02,4.35c0.99,2.8,2.65,5.64,5.91,7.89
						c2.63,1.88,6.3,3.07,10.02,3.6c3.74,0.54,7.53,0.59,11.12,0.39c7.2-0.4,13.56-1.41,19.08-2.92c2.76-0.75,5.29-1.5,7.63-2.43
						c2.34-0.91,4.45-1.74,6.38-2.75c1.93-0.97,3.65-1.91,5.2-2.86C1111.24,995.04,1112.61,994.09,1113.82,993.16z"/>
					<path class="st5" d="M1178.17,878.03c-11.43,12.69-22.3,24.76-32.77,36.39c-10.26,11.44-19.71,22.29-28.27,32.9l-4.62,4.97
						c-1.09,1.24-2.22,2.46-3.3,3.74c-2.19,2.52-4.31,5.17-6.36,7.94c-2.08,2.75-4.01,5.69-5.89,8.75
						c-0.89,1.56-1.89,3.09-2.66,4.76c-0.75,1.65-1.33,3.52-0.99,5.31c0.35,2.07,1.89,3.56,3.48,4.65c0.8,0.57,1.68,1,2.55,1.47
						c0.44,0.23,0.87,0.48,1.32,0.69l1.37,0.59c3.67,1.56,7.65,2.53,11.79,3c-7.28,5.6-17.09,10.75-29.38,13.91
						c-1.53,0.37-3.1,0.72-4.71,1.05c-1.6,0.31-3.28,0.7-4.94,0.89c-1.67,0.22-3.38,0.43-5.13,0.61c-1.75,0.18-3.55,0.36-5.35,0.42
						c-3.6,0.14-7.32,0.04-10.9-0.57c-3.56-0.59-6.97-1.78-9.48-3.52c-3.21-2.09-5.08-4.75-6.19-7.43
						c-0.55-1.35-0.93-2.73-1.19-4.16c-0.13-0.71-0.24-1.44-0.3-2.17l-0.05-0.55l0.07-0.59l0.14-1.19c0.17-1.64,0.34-3.29,0.51-4.95
						c0.24-1.71,0.48-3.44,0.72-5.19c0.13-0.89,0.23-1.8,0.37-2.72c0.18-0.92,0.36-1.85,0.54-2.78c0.38-1.88,0.73-3.84,1.18-5.84
						c0.56-2.04,1.13-4.09,1.69-6.17c0.56-2.13,1.3-4.29,2.08-6.51c0.8-2.22,1.52-4.54,2.49-6.87c0.99-2.38,1.99-4.78,2.99-7.2
						c0.5-1.24,1.09-2.47,1.69-3.72c0.61-1.26,1.22-2.52,1.83-3.79c0.64-1.29,1.27-2.59,1.91-3.89c0.65-1.31,1.39-2.6,2.11-3.93
						c1.46-2.64,2.94-5.37,4.53-8.12c1.69-2.76,3.39-5.54,5.1-8.34c-2.24,2.56-4.82,4.72-7.65,6.78c-2.77,2.09-5.73,4.1-8.8,6.2
						c-1.52,1.05-3.1,2.11-4.58,3.25c-1.48,1.14-2.94,2.32-4.37,3.55c-1.42,1.23-2.81,2.52-4.11,3.87c-0.65,0.67-1.29,1.36-1.9,2.07
						c-0.58,0.71-1.12,1.44-1.63,2.19c0.55-0.92,1.04-1.84,1.63-2.74c0.59-0.9,1.17-1.8,1.75-2.7c1.18-1.8,2.34-3.58,3.49-5.35
						c2.25-3.57,4.85-6.96,7.26-10.34c1.23-1.68,2.42-3.37,3.67-5.01c1.28-1.63,2.54-3.23,3.78-4.82c2.32-2.92,4.58-5.77,6.79-8.55
						c6.61-8.39,12.73-15.46,17.9-21.7c10.38-12.37,17.05-21.09,17.82-27.39c47.54-49.19,93.68-99.38,138.7-150.68
						c22.5-25.64,44.71-51.53,66.64-77.68l16.4-19.66l16.28-19.75l8.1-9.92l4.05-4.96l1.01-1.24l0.25-0.31l0.13-0.15
						c1.16,0.93-2.5-2.18,2.61,2.06l0.14,0.12c0.37,0.31,0.75,0.62,1.14,0.93l1.35,1.05c0.51,0.4,1.04,0.79,1.57,1.17l1.77,1.28
						l1.87,1.27c5.19,3.52,11.16,6.76,16.08,8.42c0.69,0.2,1.17,0.41,1.75,0.57c0.55,0.17,1.18,0.31,1.71,0.43
						c0.47,0.13,0.96,0.24,1.46,0.32l0.75,0.09c0.19,0.04,0.39,0.07,0.58,0.09c0.39,0.05,0.82,0.06,1.21,0.05
						c0.28,0.03,0.57,0.03,0.87,0l0.43-0.05c0.08,0,0.17-0.01,0.26-0.02c0.15-0.02,0.41-0.09,0.51-0.11
						c0.05,0.01,0.37-0.14,0.12-0.02l-0.07,0.05c-0.04,0.02,0.01,0-0.12,0.08c-0.18,0.11-0.34,0.22-0.47,0.34l-0.1,0.09l-0.05,0.05
						c-0.41,0.37,0.51-0.44,0.41-0.36l-0.01,0.01c0,0,0,0,0.01,0l-0.1,0.11l-0.23,0.32c-0.12,0.17-0.16,0.27-0.33,0.55
						c-1.03,1.86-2.45,6.17-2.79,14.67c0.11-1.96,0.17-3.38,0.37-4.96c0.1-1.31,0.36-2.74,0.53-3.77c0.25-1.19,0.41-2.04,0.71-2.95
						c0.1-0.38,0.22-0.75,0.36-1.13c0.15-0.39,0.21-0.61,0.36-0.92c0.46-1.1,0.97-1.74,1.08-1.87c0.06-0.07,0.01-0.01,0.03-0.03
						l0-0.01l0,0l0,0c-0.87,0.77-0.24,0.21-0.43,0.38l0.01-0.01c0.05-0.05,0.11-0.11,0.16-0.16c0.12-0.1,0.25-0.2,0.4-0.3l0.12-0.07
						c0.03-0.02,0.02-0.01,0.03-0.02l0.06-0.04c0.04-0.03,0.1-0.05,0.16-0.08c-0.05,0.02-0.12,0.05-0.16,0.06l-0.07,0.01
						c-0.01,0-0.01,0-0.04,0.01l-0.12,0.04c-0.16,0.04-0.32,0.07-0.46,0.08c-0.09,0.01-0.11,0-0.25,0.02
						c-0.13,0.02-0.26,0.04-0.39,0.04c-0.26,0.02-0.51,0.02-0.75,0c-0.27-0.01-0.69,0-1.01-0.03c-0.36-0.03-0.64-0.09-1.05-0.14
						c-3.18-0.42-7.69-1.97-12.41-4.39c-4.7-2.37-9.72-5.66-13.41-8.44c-0.89-0.66-1.84-1.42-2.42-1.87l-0.98-0.8l-0.12-0.1
						l-0.06-0.05c-0.44-0.37-0.13-0.09-0.23-0.17l-0.01,0.02l-0.1,0.14l-0.21,0.27l-1.69,2.18c-2.27,2.89-4.59,5.74-6.94,8.56
						c-4.7,5.65-9.58,11.14-14.46,16.64c-4.87,5.51-9.77,10.98-14.55,16.57c3.6-1.55,7.16-3.69,10.68-6.3
						c3.51-2.63,6.97-5.75,10.4-9.23c6.88-6.95,13.51-15.44,20.04-24.47c-20.65,44.98-43.53,91.13-66.03,136.27
						c-22.46,45.16-44.53,89.32-63.09,130.66c-6.84,7.02-13.59,14.03-20.43,20.95C1196.39,862.33,1188.59,865.19,1178.17,878.03z"/>
					<path class="st6" d="M1089.02,365.65c10.74-4.59,22.48-9.13,35.17-13.37c12.69-4.25,26.32-8.28,40.74-12.1
						c4.52-1.09,8.98-2.17,13.37-3.23c2.27-0.57,4.56-1.03,6.87-1.54c0.27-0.05,0.61-0.15,0.83-0.17l0.71-0.08l1.42-0.16
						c0.94-0.1,1.88-0.21,2.81-0.31c3.73-0.42,7.38-0.75,10.93-0.77c3.54-0.02,7.01,0.31,10.19,1.28c3.16,1,6,2.59,8.3,4.59
						c2.32,1.99,4.12,4.31,5.53,6.66c2.8,4.73,4.13,9.62,4.57,13.69c0.4,4.06,0.14,7.36-0.03,10.05c-0.19,2.71-0.27,4.88-0.07,6.96
						c0.05,0.52,0.12,1.03,0.21,1.55l0.14,0.78l0.09,0.89c0.14,1.19,0.37,2.38,0.67,3.56c0.6,2.37,1.5,4.74,2.69,7.11
						c-0.45,0.58-0.91,1.18-1.39,1.79c-0.5,0.63-0.87,1.16-1.72,2.06c-1.49,1.64-3.06,3.35-4.69,5.14
						c-3.24,3.52-6.73,7.32-10.42,11.32c-0.91,0.99-1.84,1.99-2.77,3.01c-0.47,0.51-0.93,1.01-1.4,1.52l-0.71,0.77
						c-0.13,0.13-0.21,0.25-0.38,0.39l-0.57,0.44c-2.99,2.33-6.05,4.7-9.16,7.12c-6.16,4.81-12.39,9.72-18.61,14.69
						c-3.12,2.49-6.27,5.01-9.43,7.53c-3.13,2.53-6.27,5.07-9.42,7.61c-3.09,2.55-6.19,5.1-9.27,7.64
						c-3.02,2.56-6.22,5.08-8.84,7.71c-5.47,5.22-10.79,10.44-15.91,15.65c-2.56,2.6-5.07,5.21-7.53,7.8
						c-0.29,0.31-0.66,0.69-0.87,0.94l-0.51,0.65c-0.34,0.43-0.67,0.87-1.01,1.3c-0.66,0.87-1.31,1.73-1.95,2.59
						c-2.77,2.72-5.73,5.62-8.85,8.68c-1.55,1.54-3.2,3.06-4.79,4.71c-1.6,1.64-3.23,3.32-4.89,5.03
						c-3.34,3.41-6.8,6.96-10.36,10.59c-3.46,3.73-7.01,7.57-10.63,11.47c-1.81,1.95-3.63,3.92-5.47,5.91
						c-1.8,2.01-3.57,4.08-5.37,6.14c-3.58,4.13-7.2,8.29-10.82,12.46c-3.49,4.28-6.98,8.56-10.45,12.82
						c-1.72,2.14-3.5,4.23-5.14,6.4c-1.65,2.17-3.28,4.32-4.91,6.46c-3.23,4.3-6.48,8.48-9.49,12.68
						c-2.96,4.24-5.85,8.38-8.64,12.38c-1.38,2.01-2.76,3.97-4.06,5.94c-1.26,1.98-2.5,3.93-3.7,5.83c-2.4,3.81-4.67,7.45-6.77,10.9
						c-0.52,0.86-1.04,1.71-1.54,2.55c-0.48,0.85-0.95,1.69-1.41,2.52c-0.9,1.66-1.77,3.26-2.61,4.79
						c-1.65,3.08-3.11,5.92-4.35,8.49c-2.55,5.11-4.02,9.27-4.53,12.02c-0.5,2.75-0.26,2.74,0.59,0.5
						c0.85-2.24,2.24-6.76,4.37-12.86c1.03-3.08,2.2-6.58,3.49-10.43c0.64-1.94,1.31-3.97,2-6.07c0.75-2.08,1.52-4.25,2.33-6.48
						c1.61-4.5,3.32-9.29,5.11-14.3c0.87-2.54,1.89-5.04,2.88-7.64c1-2.6,2.03-5.24,3.06-7.92c1.04-2.7,2.1-5.43,3.16-8.2
						c1.06-2.78,2.27-5.5,3.42-8.3c2.35-5.61,4.74-11.31,7.14-17.03c2.56-5.69,5.12-11.4,7.67-17.06c0.64-1.43,1.28-2.85,1.92-4.27
						c0.64-1.42,1.34-2.8,2-4.19c1.34-2.79,2.68-5.56,4-8.31c5.19-11.12,10.73-21.51,15.65-31.23c1.21-2.45,2.5-4.74,3.72-7.01
						c1.23-2.27,2.42-4.48,3.57-6.61c2.3-4.3,4.44-8.31,6.39-11.95c-0.77-3.24-0.25-7.58,1.37-12.85c0.81-2.63,1.89-5.5,3.21-8.57
						c0.66-1.54,1.38-3.12,2.16-4.76c0.2-0.41,0.4-0.82,0.6-1.24c0.13-0.24,0.11-0.32,0.17-0.48l0.12-0.42
						c0.15-0.55,0.31-1.11,0.47-1.67c1.25-4.41,2.42-8.73,3.24-12.4c0.41-1.82,0.73-3.53,0.92-5.11c0.1-0.79,0.17-1.55,0.2-2.27
						c0.05-0.71,0.07-1.38,0.06-2.01c2.23-1.42,5.22-1.49,8.27-1.55c3.06-0.07,6.16-0.12,9.45-2.2c-0.39,0.01-0.9-0.43-1.53-1
						c-0.62-0.56-1.39-1.24-2.23-1.82c-1.66-1.19-3.75-1.89-3.75-1.89s1.44-1.14,3.91-2.91c1.23-0.9,2.71-1.98,4.37-3.19
						c1.66-1.21,3.57-2.48,5.37-4.11c0.9-0.81,1.78-1.72,2.52-2.75c0.75-1.03,1.38-2.19,1.72-3.46c0.34-1.26,0.42-2.61,0.21-3.91
						c-0.22-1.3-0.75-2.56-1.64-3.52c-0.88-0.98-2.09-1.57-3.32-1.85c-1.24-0.29-2.5-0.36-3.74-0.41c-1.24-0.04-2.45-0.1-3.63-0.12
						c-1.19,0-2.34-0.01-3.45-0.01c-1.1,0.03-2.37,0.07-3.55,0.11c1.42-1.95,1.9-3.4,1.66-4.47c-0.24-1.05-1.19-1.66-2.59-1.97
						c-2.8-0.54-7.33,0.23-11.63,1.7c-4.34,1.42-8.44,3.46-11.36,5.26c-2.95,1.8-4.76,3.41-5.19,4.16
						c-4.74,1.31-9.41,2.81-14.01,4.53c-0.14,0.01-0.31,0.02-0.46,0.03c5.36-5.9,13.82-12.62,25.44-19.21
						c3.5-2.44,7.1-6.46,9.85-9.86c1.37-1.71,2.5-3.26,3.28-4.39C1088.59,366.35,1089.02,365.65,1089.02,365.65z"/>
					<path class="st7" d="M1164.7,667.88c-0.15-6.66,2.31-14.61,6.94-23.51c4.62-8.9,11.39-18.78,19.99-29.24
						c8.6-10.46,19.03-21.52,31.13-32.62c12.1-11.1,25.89-22.23,41.11-32.67c-1.65,0.67-3.5,1.38-5.42,2.2
						c-1.92,0.83-3.96,1.72-6.12,2.65c-4.36,1.84-8.95,4.04-13.84,6.31c-9.66,4.63-20.06,9.92-29.51,15.17
						c-19.05,10.44-34.71,20.31-37.76,22.17c9.4-0.36,23.31-3.26,11.56,7.2c-16.52,12.86-34.22,27.47-50.7,40.8
						c-8.26,6.69-16.19,13-23.58,18.72c-7.37,5.68-14.19,10.75-20.11,14.86c-3.89,2.46-7.86,4.87-11.89,7.16
						c-4.03,2.34-8.13,4.53-12.27,6.71c-2.07,1.11-4.16,2.11-6.25,3.16c-2.09,1.02-4.19,2.1-6.31,3.07
						c-2.11,0.97-4.23,1.95-6.35,2.93l-1.59,0.73l-1.55,0.67l-3.09,1.33c-8.14,3.36-16.04,6.17-23.18,7.88
						c-3.6,0.95-6.94,1.5-10.1,1.98c-1.54,0.16-3.08,0.4-4.49,0.44c-1.44,0.15-2.82,0.11-4.03,0.15l-0.3,0.1l-0.12,0.04
						c-0.08,0.03-0.16,0.06-0.24,0.1c-0.16,0.07-0.32,0.18-0.49,0.29c-0.34,0.14-0.68,0.29-1.04,0.42
						c-0.72,0.26-1.48,0.48-2.29,0.64c-1.61,0.31-3.37,0.3-5.18-0.04c-1.8-0.34-3.67-1-5.39-2.08c-1.72-1.07-3.3-2.55-4.35-4.41
						c-0.12-0.22-2.09-0.74-4.38-1.72c-2.31-0.93-4.79-2.4-6.77-2.92c-0.43-0.42-0.9-0.52-1.33-0.53c0.65-2.44,1.74-4.7,2.93-6.81
						c0.6-1.06,1.22-2.08,1.88-3.07c0.33-0.51,0.67-1.01,1-1.52c0.37-0.58,0.54-0.75,1.33-2.1c2.64-4.34,5.2-8.65,7.94-12.8
						c2.78-4.14,5.56-8.21,8.35-12.27c-0.03-0.34,0.85-3.24,2.61-8.03c1.85-4.77,4.44-11.48,7.56-19.53
						c1.61-4.02,3.48-8.31,5.4-12.91c0.97-2.3,1.96-4.67,2.98-7.09c0.51-1.21,1.02-2.44,1.54-3.68c0.55-1.22,1.11-2.46,1.67-3.7
						c2.25-5.02,4.58-10.22,6.95-15.53c1.16-2.69,2.45-5.32,3.72-8.01c1.27-2.69,2.55-5.4,3.83-8.11c1.28-2.73,2.56-5.47,3.84-8.21
						c1.34-2.71,2.68-5.42,4.01-8.12c2.67-5.45,5.31-10.86,7.9-16.14c5.41-10.45,10.3-20.79,14.95-29.9c2.27-4.6,4.36-9,6.21-13.12
						c1.9-4.08,3.62-7.83,5-11.27c2.79-6.87,4.35-12.41,4.27-16c-0.77-3.24-0.25-7.58,1.37-12.85c0.81-2.63,1.89-5.5,3.21-8.57
						c0.66-1.54,1.38-3.12,2.16-4.76c0.2-0.41,0.4-0.82,0.6-1.24c0.13-0.24,0.11-0.32,0.17-0.48l0.12-0.42
						c0.15-0.55,0.31-1.11,0.47-1.67c1.25-4.41,2.42-8.73,3.24-12.4c0.41-1.82,0.73-3.53,0.92-5.11c0.1-0.79,0.17-1.55,0.2-2.27
						c0.05-0.71,0.07-1.38,0.06-2.01c-0.1,0.06-0.7,0.52-1.68,1.29c-0.98,0.77-2.31,1.91-3.94,3.25c-1.62,1.35-3.51,2.89-5.62,4.8
						c-1.04,0.92-2.13,1.89-3.27,2.89c-0.28,0.25-0.56,0.5-0.85,0.75l-0.21,0.19c-0.08,0.07-0.1,0.08-0.35,0.33l-1.2,1.17
						c-1.6,1.57-3.23,3.16-4.87,4.77c-3.29,3.22-6.65,6.52-10.06,9.86c-1.72,1.65-3.39,3.38-5.06,5.12
						c-1.67,1.74-3.35,3.48-5.04,5.23c-3.37,3.5-6.75,7.01-10.11,10.51c-3.27,3.59-6.52,7.16-9.72,10.68
						c-1.6,1.76-3.19,3.51-4.77,5.25c-1.58,1.73-3.15,3.44-4.62,5.2c-2.99,3.48-5.91,6.88-8.72,10.16
						c-1.41,1.64-2.79,3.25-4.15,4.83c-0.68,0.79-1.35,1.57-2.01,2.34c-0.64,0.79-1.28,1.57-1.91,2.34
						c-2.51,3.09-4.89,6.03-7.12,8.78c1.42-0.1,6.34-3.58,11.45-7.57c5.21-3.91,10.7-8.26,13.02-10.45
						c-1.26,1.51-4.76,5.02-9.55,9.7c-4.72,4.74-10.56,10.8-16.81,17.14c-0.78,0.8-1.56,1.6-2.35,2.4c-0.76,0.82-1.53,1.65-2.3,2.48
						c-1.53,1.66-3.07,3.33-4.6,4.98c-3.06,3.33-6.08,6.63-8.97,9.77c-1.46,1.57-2.81,3.14-4.11,4.67c-1.3,1.53-2.56,3.01-3.75,4.41
						c-2.38,2.82-4.51,5.38-6.26,7.56c-1.32,1.84-2.78,3.83-4.29,6c-1.48,2.19-3.05,4.53-4.7,6.98c-1.65,2.46-3.37,5.03-5.16,7.69
						c-0.89,1.33-1.8,2.69-2.72,4.06c-0.93,1.37-1.85,2.77-2.73,4.22c-3.59,5.75-7.35,11.76-11.12,17.81
						c-0.96,1.5-1.87,3.04-2.75,4.59c-0.9,1.54-1.79,3.08-2.69,4.62c-1.78,3.07-3.56,6.13-5.3,9.14
						c-3.56,5.98-6.67,11.96-9.64,17.46c-2.05,3.84-4.02,7.54-5.89,11.04c-2.12,4.08-4.02,7.98-5.64,11.65
						c-6.53,14.71-8.01,25.54-8.29,28.62c-0.12,0.81-0.2,1.5-0.24,1.99c-0.18,3.67,0.66,2.71,2.09-0.01c0.75-1.33,1.65-3.07,2.7-4.9
						c1.06-1.83,2.29-3.74,3.58-5.43c2.57-3.4,5.38-5.89,7.2-5.59c-2.45,5.06-4.47,10.32-5.91,15.87
						c-1.81,7.04-2.59,14.42-2.23,21.84c0.23,3.7,0.69,7.41,1.45,11.09c0.78,3.66,1.77,7.31,3.1,10.86
						c5.16,14.26,14.39,27.28,26.45,37.88c12.03,10.63,26.98,18.87,43.55,23.45c2.08,0.53,4.16,1.09,6.29,1.51
						c1.06,0.21,2.12,0.44,3.19,0.62l3.23,0.47c2.16,0.29,4.33,0.59,6.52,0.8c2.19,0.17,4.4,0.3,6.61,0.41
						c2.21,0.14,4.44,0.12,6.67,0.09c2.23-0.04,4.47-0.05,6.71-0.21c2.24-0.16,4.49-0.34,6.74-0.56l1.69-0.17l1.44-0.19l2.79-0.39
						c8.7-1.55,16.99-3.74,24.65-6.38c7.69-2.62,14.93-5.6,21.8-8.74c5.11,0,8.9-0.18,3.22,2.6c-8.43,4.78-17.58,9.19-27.87,12.89
						c7.62-2.25,20.72-7.05,34.59-13.91c6.96-3.41,14.13-7.28,21.14-11.32c3.39-1.99,6.84-4.01,10.34-6.06
						c3.42-2.08,6.88-4.19,10.35-6.3c13.73-8.51,26.98-17.31,38.06-24.84c11.07-7.53,20.08-13.81,25.3-17.47
						c-11.07,6.98-22.37,13.81-33.92,20.36c-11.57,6.55-23.4,12.8-35.46,18.6c23.85-14.95,46.17-30.75,67.63-46.16
						c0.86-0.68,1.69-1.33,2.55-2c14.02-17.91,26.1-35.1,36.92-51.41c10.81-16.34,20.36-31.9,28.97-46.79
						c-13.46,6.28-32.92,17.24-49.22,26.46C1179.74,663.19,1166.41,670.25,1164.7,667.88z"/>
					<path class="st8" d="M428.82,340.02c-3.04,3.38-5.96,7.81-8.62,13.19c-2.67,5.37-5.08,11.68-7.24,18.69
						c-2.17,6.97-4.1,14.8-5.9,22.9c-1.83,8.05-3.47,16.23-5,24.41c-3.06,16.35-5.59,32.65-8.06,47.8
						c-2.48,15.16-4.9,29.18-8.04,41.03c-1.43,4.56-2.94,8.76-4.39,12.62c-1.44,3.86-2.91,7.4-4.41,10.63
						c-2.9,6.46-6,11.74-9.1,16.08c-3.11,4.35-6.35,7.77-9.7,10.57c-3.33,2.79-6.73,4.94-10.22,6.77
						c-6.98,3.65-14.24,5.94-21.43,9.51c-7.18,3.58-14.21,8.42-20.72,17.48c-2.79-31.29-3.9-62.65-3.19-93.92
						c0.76-31.27,3.12-62.45,7.4-93.34c0.48-3.87,1.11-7.72,1.67-11.57l0.87-5.78l0.96-5.77c1.24-7.63,2.63-15.44,4.31-23.63
						c3.39-16.32,7.91-33.95,15.71-52.12c3.9-9.06,8.66-18.22,14.46-27.08c1.49-2.21,3.01-4.4,4.54-6.57
						c1.6-2.12,3.22-4.22,4.85-6.31c1.66-2.02,3.36-3.98,5.05-5.95c1.71-1.91,3.46-3.74,5.21-5.6c7.04-7.24,14.35-13.54,21.61-19.13
						c7.28-5.6,14.52-10.5,21.59-14.97c7.07-4.47,13.98-8.5,20.63-12.28c6.67-3.78,12.98-7.28,19.47-10.89
						c12.94-7.17,26.06-14.36,39.46-21.38c26.81-14.03,54.68-27.5,84.26-38.82c14.76-5.68,29.99-10.77,45.64-15.07
						c7.8-2.19,15.77-4.05,23.78-5.8c8.06-1.64,16.17-3.16,24.4-4.29c16.44-2.31,33.22-3.58,50.12-3.31l6.33,0.13
						c2.11,0.03,4.23,0.2,6.34,0.3c2.13,0.12,4.19,0.21,6.37,0.37l3.3,0.27l3.37,0.33c4.53,0.49,9.15,1.08,13.96,1.96
						c1.18,0.19,2.43,0.47,3.63,0.7c1.21,0.24,2.43,0.5,3.68,0.8c1.25,0.3,2.47,0.57,3.73,0.9l4.17,1.14
						c-0.76-0.1-1.53-0.2-2.31-0.31c-0.67-0.07-1.34-0.15-2.02-0.23c-1.32-0.14-2.61-0.22-3.94-0.33c-1.33-0.12-2.62-0.19-3.92-0.26
						c-1.3-0.07-2.63-0.16-3.91-0.19c-5.2-0.21-10.33-0.21-15.4-0.08c-5.12,0.09-9.93,0.45-14.94,0.68
						c-2.5,0.14-5.01,0.37-7.55,0.55c-1.27,0.09-2.54,0.18-3.81,0.28c-1.27,0.13-2.55,0.25-3.83,0.38
						c-2.56,0.27-5.14,0.46-7.72,0.79c-2.57,0.32-5.17,0.64-7.77,0.96c-5.18,0.77-10.41,1.49-15.59,2.48
						c-10.39,1.87-20.73,4.18-30.73,7.04c-20.05,5.61-38.83,13.11-54.73,21.67c-15.91,8.56-28.94,18.19-37.82,28.1
						c0.62,1.32,5.81,0.44,12.19-0.8c6.36-1.28,13.91-2.89,19.12-3.43c-6.6,3.81-13.65,8.01-20.99,12.34
						c-7.3,4.41-14.86,8.99-22.38,13.75c-15.05,9.52-30.03,19.59-43.12,29.15c-13.09,9.55-24.33,18.54-31.87,25.87
						c-7.56,7.33-11.15,12.97-9.24,16.05c2.35,3.77,8.43,5.44,15.63,6.91c7.22,1.45,15.6,2.63,22.12,5.46
						c-6.15,3.69-12.26,7.36-18.42,11.06c-10.32,3.82-21.78,10.64-31.32,18.92c-1.25,1.03-2.29,2.09-3.46,3.16
						c-1.13,1.07-2.13,2.16-3.23,3.25c-1.97,2.21-3.95,4.43-5.53,6.7c-1.7,2.25-3.04,4.48-4.44,6.92
						C431.41,334.31,430.14,337.08,428.82,340.02z"/>
					<path class="st9" d="M745.54,212.74c-0.06,0.06-0.17-0.03-0.14,0.04c-0.44-0.12-1.27-0.25-1.94-0.39
						c-1.53-0.24-3.21-0.51-5.21-0.7c-2-0.19-4.12-0.37-6.53-0.46l-0.89-0.04l-0.98-0.02l-1.95-0.04l-3.9-0.1
						c-10.43-0.05-20.97,0.72-31.62,2.23c-10.65,1.52-21.41,3.75-32.25,6.73c-10.84,2.98-21.76,6.64-32.73,10.86
						c-1.45-2.4-3.56-4.46-6.02-6.26c26.31-10.02,52.47-17.21,78.17-19.89c3.22-0.42,6.41-0.57,9.62-0.86
						c1.6-0.11,3.19-0.15,4.79-0.24c1.6-0.08,3.2-0.18,4.78-0.17l4.77-0.08c1.59-0.01,3.17,0.06,4.76,0.07
						c3.27,0.02,6.12,0.16,8.81,0.35c2.68,0.19,5.1,0.46,7.19,0.8c0.55,0.07,1.04,0.16,1.52,0.25c0.49,0.09,0.99,0.16,1.4,0.27
						c0.29,0.07,0.25,0.05,0.34,0.05c0.06-0.01,0.15,0.01,0.22,0.03c0.16,0.04,0.32,0.06,0.49,0.07c1.29,0.24,2.62,0.67,3.8,1.41
						C749.11,207.71,746.8,209.95,745.54,212.74z"/>
					<path class="st9" d="M589.03,172.33c-5.21,0.55-12.76,2.16-19.12,3.43c-6.38,1.23-11.57,2.12-12.19,0.8
						c8.88-9.92,21.91-19.55,37.82-28.1c15.9-8.56,34.67-16.06,54.73-21.67c10.01-2.86,20.35-5.17,30.73-7.04
						c5.18-0.99,10.41-1.71,15.59-2.48c2.6-0.32,5.2-0.64,7.77-0.96c2.58-0.34,5.16-0.52,7.72-0.79c1.28-0.13,2.56-0.26,3.83-0.38
						c1.28-0.09,2.55-0.19,3.81-0.28c2.53-0.17,5.05-0.41,7.55-0.55c5.01-0.23,9.82-0.58,14.94-0.68c5.06-0.13,10.19-0.13,15.4,0.08
						c1.28,0.03,2.6,0.12,3.91,0.19c1.3,0.07,2.6,0.14,3.92,0.26c1.32,0.12,2.61,0.19,3.94,0.33c0.68,0.08,1.35,0.15,2.02,0.23
						c0.77,0.1,1.54,0.2,2.31,0.31c8.93,2.62,17.57,6.21,25.57,10.86c8.03,4.6,15.26,10.47,21.6,17.13
						c12.63,13.44,20.95,30.62,24.6,48.7c0.42,2.27,0.81,4.55,1.17,6.82c0.29,2.29,0.53,4.59,0.75,6.88
						c0.11,1.13,0.15,2.37,0.21,3.56l0.13,3.32c0.04,2.13-0.02,4.25-0.06,6.38c-0.06,2.12-0.25,4.23-0.4,6.34
						c-0.16,2.11-0.47,4.21-0.73,6.31c-0.25,2.1-0.7,4.18-1.07,6.27l-0.3,1.56l-0.34,1.46l-0.69,2.91
						c-3.83,15.49-10.06,29.11-16.73,41c-6.7,11.91-13.9,22.28-20.68,31.79c-6.77,9.44-13.6,18.76-20.48,27.91
						c-13.75,18.34-27.62,36.14-41.22,53.84c7.45-13.63,15.03-27.34,22.48-41.17c-15.15,20.03-28.24,28.69-41.24,37.46
						c-12.98,8.76-26.05,17.53-40.44,37.56c16.58-32.35,37.64-66.08,58.77-100.65c5.26-8.66,10.56-17.35,15.74-26.14
						c2.61-4.37,5.16-8.79,7.71-13.2c2.57-4.41,5.06-8.82,7.44-13.24c4.75-8.84,9.1-17.73,12.25-26.68
						c1.59-4.47,2.89-8.94,3.85-13.37c0.49-2.22,0.85-4.43,1.18-6.62l0.37-3.28c0.09-1.07,0.12-2.12,0.19-3.17
						c0.15-4.21-0.1-8.39-0.73-12.41c-0.6-3.77-1.65-7.44-3.02-10.84c-1.37-3.41-3.1-6.59-5.14-9.44c-2.05-2.85-4.5-5.33-7.14-7.4
						c-5.27-4.22-11.61-6.42-17.59-7.27c-1.5-0.22-2.99-0.35-4.43-0.43c-0.65,0.01-1.59-0.12-2.47-0.14
						c-0.9-0.03-1.76-0.09-2.68-0.09c-3.6-0.07-7.32,0.08-11.11,0.39c-0.96,0.09-1.91,0.18-2.86,0.27
						c-0.96,0.11-1.93,0.22-2.89,0.32c-1.98,0.27-3.95,0.54-5.9,0.81c-0.98,0.14-1.94,0.27-2.91,0.43
						c-0.97,0.18-1.93,0.36-2.89,0.53c-1.91,0.37-3.8,0.68-5.68,1.11c-3.75,0.87-7.41,1.69-10.98,2.76
						c-3.57,0.96-7.06,2.16-10.45,3.31c-13.57,4.8-25.64,11.01-36.01,17.9c-6.64,1.89-13.28,3.93-19.92,6.27
						c-6.64,2.26-13.27,4.83-19.9,7.49c-13.25,5.41-26.49,11.46-39.71,18.12c-6.61,3.28-13.22,6.78-19.84,10.3
						c-6.61,3.59-13.23,7.2-19.87,10.97c-13.26,7.48-26.58,15.34-40.03,23.35c-6.52-2.83-14.9-4.01-22.12-5.46
						c-7.19-1.47-13.28-3.14-15.63-6.91c-1.9-3.08,1.69-8.72,9.24-16.05c7.54-7.33,18.78-16.32,31.87-25.87
						c13.09-9.56,28.07-19.64,43.12-29.15c7.52-4.77,15.08-9.35,22.38-13.75C575.37,180.34,582.43,176.14,589.03,172.33z"/>
					<path class="st10" d="M685.81,431.92c14.39-20.02,27.46-28.79,40.44-37.56c13.01-8.77,26.09-17.43,41.24-37.46
						c-7.45,13.83-15.02,27.54-22.48,41.17c-7.84,10.21-15.59,20.37-23.19,30.54c-7.56,10.16-14.96,20.34-22.13,30.55
						c-7.12,10.22-13.99,20.49-20.55,30.83c-6.52,10.35-12.65,20.79-18.38,31.32l-4.2,7.92l-3.97,7.96c-1.36,2.65-2.54,5.33-3.79,8
						l-1.85,4.01l-0.42,0.91l-0.2,0.47l-0.4,0.95c-0.52,1.24-1.11,2.57-1.58,3.75l-1.34,3.46c-0.83,2.33-1.68,4.65-2.37,7.02
						c-1.45,4.72-2.64,9.52-3.43,14.37c-0.23,1.21-0.4,2.43-0.55,3.64c-0.15,1.22-0.35,2.43-0.43,3.66l-0.31,3.66
						c-0.07,1.22-0.07,2.45,0.02,3.67c-0.31,3.14-0.19,6.34,0.64,9.2c0.62,2.02,1.61,3.94,3.07,5.31c1.45,1.38,3.33,2.11,5.17,2.17
						c1.86,0.06,3.63-0.54,5.22-1.39c1.6-0.85,3.06-1.94,4.5-3.06c5.76-4.5,11.5-9.26,17.1-14.17c2.83-2.42,5.6-4.93,8.43-7.4
						l4.77-4.27l2.43-2.16l0.66-0.59l1.23-1.13l2.46-2.25c13.11-11.98,26.43-24.15,40.33-36.5c-6.95,10.56-13.91,21.12-20.87,31.69
						c-3.48,5.25-6.97,10.51-10.46,15.78l-1.31,1.97l-0.66,0.99c-0.21,0.33-0.47,0.69-0.57,0.9l-1.72,3.07
						c-1.18,2.08-2.44,4.22-3.76,6.43c-2.69,4.48-5.5,8.96-8.69,13.81c-1.59,2.42-3.26,4.92-5.02,7.47
						c-1.77,2.54-3.63,5.16-5.57,7.85c-3.87,5.38-8.07,11.04-12.68,16.89c-4.6,5.87-9.47,12.07-14.82,18.39
						c-4.15,2.1-8.05,4.14-11.87,5.9c-3.84,1.71-7.8,3.08-12.21,2.86c-2.2-0.14-4.48-0.68-6.69-1.86c-2.19-1.18-4.31-2.85-6.05-5.1
						c-1.77-2.2-3.13-4.92-4.13-7.79c-0.99-2.9-1.64-5.96-2-9.07c-0.74-6.22-0.47-12.52,0.36-18.57c0.42-3.03,0.98-6.01,1.7-8.91
						c0.75-2.9,1.57-5.74,2.34-8.51c0.4-1.39,0.75-2.76,1.19-4.11c0.43-1.33,0.86-2.67,1.29-4c0.88-2.64,1.64-5.23,2.61-7.72
						c0.91-2.44,1.81-4.88,2.73-7.33c0.96-2.3,1.93-4.62,2.89-6.93c3.91-8.99,8.01-16.95,12.14-23.99c1.04-1.69,2.09-3.39,3.13-5.09
						l0.76-1.23l0.82-1.26l1.62-2.48l1.61-2.46c0.81-1.34,1.61-2.68,2.42-4.02c1.63-2.67,3.16-5.38,4.89-8.03
						c6.61-10.69,13.87-21.24,21.43-31.79c7.59-10.54,15.52-21.06,23.87-31.6c-11.77,14.99-19,18.75-25.24,20.55
						c-3.12,0.89-5.9,1.31-8.66,2.44c-2.76,1.14-5.59,2.97-8.59,6.79c-6.11,6.72-12.29,13.34-18.29,19.83
						c-2.98,3.26-6.06,6.43-8.92,9.61c-1.48,1.58-2.94,3.15-4.38,4.69c-1.43,1.52-2.83,3.01-4.22,4.49
						c-5.65,5.94-11.31,12.47-16.9,19.27c-2.86,3.63-5.58,7.08-8.14,10.32c-2.67,3.45-5.1,6.9-7.58,10.25
						c-5.04,6.73-9.32,13.04-13.4,18.39c-2.03,2.67-3.97,5.1-5.8,7.19c-1.79,2.08-3.42,3.81-4.98,5.15
						c-6.14,5.32-11.22,4.31-12.53-8.76l0.91-5.63l0.23-1.41l0.31-1.44l0.63-2.88l2.52-11.55c0.71-3.83,2.02-7.78,3.08-11.68
						l3.34-11.76l4.06-11.8c1.38-3.91,2.63-7.95,4.23-11.67l4.58-11.38l1.15-2.85l0.57-1.43l0.41-0.92l1.64-3.68
						c8.7-19.69,18.56-38.48,29.07-56.46c21.11-35.91,44.58-68.84,67.79-100.51c11.47-15.59,22.95-31.18,34.42-46.77
						c11.23-15.38,22.22-30.74,32.43-45.92c2.48-3.71,4.82-7.27,6.92-10.68c2.09-3.4,3.98-6.66,5.62-9.76
						c3.33-6.21,5.47-11.68,6.73-16.32c0.12-0.57,0.26-1.13,0.4-1.69c0.13-0.56,0.2-1.08,0.32-1.62c0.15-0.59,0.12-0.91,0.19-1.33
						l0.09-0.6l0.03-0.62c0.1-0.81,0.06-1.64,0.1-2.44c-0.03-0.4-0.05-0.8-0.05-1.19c0.01-0.2-0.05-0.38-0.06-0.57l-0.02-0.14
						l-0.01-0.04c-0.01-0.02-0.01-0.04-0.01-0.07c0.01-0.02,0-0.12-0.05-0.22c-0.03-0.09-0.06-0.19-0.07-0.28s-0.03-0.19-0.03-0.28
						c-0.04-0.09-0.08-0.18-0.11-0.27c-0.07-0.37-0.18-0.74-0.32-1.09c-0.27-0.7-0.62-1.36-1.03-1.97c1.2-1.59,2.49-4.2,2.69-6.7
						c0.09-0.66,0.07-1.23,0.03-1.82c-0.03-0.6-0.16-1.1-0.3-1.59c-0.31-0.94-0.8-1.64-1.37-1.92c-0.8-0.26-1.59-0.52-2.41-0.67
						l-0.6-0.15c-0.21-0.03-0.41-0.06-0.61-0.1c-0.2-0.03-0.4-0.1-0.59-0.11l-0.27-0.03l-0.49-0.1c-2.9-0.56-6.4-0.96-10.25-1.21
						c-0.96-0.06-1.94-0.12-2.96-0.16c-1-0.05-2.04-0.08-3.1-0.1c-1.01-0.04-2.2-0.02-3.3-0.03l-3.37-0.01
						c-2.24-0.06-4.5,0.11-6.74,0.15c-2.24,0.03-4.5,0.2-6.75,0.35c-18.01,1.2-36.11,4.45-54.19,9.57
						c10.37-6.89,22.44-13.09,36.01-17.9c3.39-1.15,6.88-2.35,10.45-3.31c3.58-1.07,7.23-1.89,10.98-2.76
						c1.87-0.42,3.76-0.74,5.68-1.11c0.96-0.18,1.92-0.35,2.89-0.53c0.97-0.16,1.94-0.28,2.91-0.43c1.95-0.27,3.92-0.54,5.9-0.81
						c0.96-0.11,1.92-0.21,2.89-0.32c0.95-0.09,1.9-0.18,2.86-0.27c3.79-0.31,7.51-0.46,11.11-0.39c0.91,0,1.77,0.06,2.68,0.09
						c0.88,0.02,1.82,0.14,2.47,0.14c1.44,0.08,2.94,0.21,4.43,0.43c5.98,0.85,12.32,3.06,17.59,7.27c2.64,2.08,5.09,4.55,7.14,7.4
						c2.05,2.85,3.77,6.03,5.14,9.44c1.37,3.41,2.41,7.07,3.02,10.84c0.63,4.02,0.89,8.2,0.73,12.41c-0.07,1.05-0.1,2.1-0.19,3.17
						l-0.37,3.28c-0.33,2.19-0.68,4.4-1.18,6.62c-0.96,4.43-2.26,8.9-3.85,13.37c-3.16,8.95-7.5,17.84-12.25,26.68
						c-2.39,4.42-4.87,8.84-7.44,13.24c-2.55,4.41-5.1,8.83-7.71,13.2c-5.17,8.78-10.47,17.48-15.74,26.14
						C723.45,365.84,702.4,399.57,685.81,431.92z"/>
					<path class="st2" d="M645.81,663.77c5.35-6.32,10.22-12.53,14.82-18.39c4.61-5.86,8.81-11.51,12.68-16.89
						c1.94-2.69,3.79-5.3,5.57-7.85c1.76-2.56,3.43-5.06,5.02-7.47c3.2-4.85,6-9.33,8.69-13.81c1.33-2.21,2.58-4.35,3.76-6.43
						l1.72-3.07c0.1-0.22,0.36-0.58,0.57-0.9l0.66-0.99l1.31-1.97c3.49-5.27,6.98-10.52,10.46-15.78
						c6.96-10.58,13.91-21.13,20.87-31.69c14.17-12.55,28.87-25.35,44.8-38.29c-1.72-1.88-3.46-3.73-10.21-1
						c5.21-4.82,10.38-9.66,15.7-14.44c5.29-4.79,10.54-9.6,15.94-14.33c3.51-2.57,7.26-4.74,11.1-6.93
						c3.87-2.17,7.87-4.32,11.76-6.93c7.75-5.25,15.41-12.02,21.7-24.06c8.06-6.36,16-12.77,24.3-19
						c8.29-6.19,16.65-12.32,25.21-18.22c19.95-9.69,37.36-14.96,50.09-15.21c-1.46-2.49-2.93-5-4.41-7.5
						c7.57-7.87,16.92-12.96,26.6-17.27c9.73-4.26,19.87-7.61,29.48-12.02c-0.64-1.41-1.62-3.63-0.82-6.05
						c3.32-1.21,6.68-2.45,10.09-3.7c3.42-1.22,6.88-2.45,10.38-3.7c4.97-1.75,10-3.51,15.07-5.29c5.35-1.72,10.73-3.46,16.16-5.21
						c21.69-6.7,43.57-11.71,64.38-15.12c20.81-3.35,40.61-5.14,58.83-5.63c2.26-0.04,4.51-0.07,6.75-0.11
						c1.12-0.02,2.24-0.04,3.36-0.06l0.84-0.01l0.77,0.05l1.54,0.1c2.05,0.14,4.1,0.27,6.13,0.4c2,0.16,4.14,0.2,5.87,0.56
						c1.82,0.29,3.63,0.58,5.42,0.87c0.9,0.14,1.8,0.29,2.69,0.43c0.9,0.14,1.8,0.27,2.57,0.5c3.21,0.81,6.38,1.61,9.49,2.39
						c2.22,0.75,4.41,1.5,6.56,2.23c1.07,0.37,2.17,0.72,3.19,1.1c0.97,0.41,1.93,0.82,2.88,1.22c1.9,0.81,3.77,1.61,5.6,2.39
						c1.74,0.83,3.41,1.67,5.08,2.65c1.66,0.98,3.32,2.1,4.92,3.48c0.8,0.68,1.6,1.42,2.37,2.23c0.39,0.41,0.77,0.82,1.15,1.23
						c0.38,0.42,0.73,0.89,1.09,1.32c2.87,3.59,5.11,7.78,6.58,11.68c1.48,3.93,2.4,7.64,2.83,10.91c0.48,3.27,0.54,6.09,0.42,8.39
						c-0.11,2.31-0.38,4.2-0.69,5.73c-0.3,1.55-0.62,2.75-0.92,3.71c-2.44,5.19-5.46,9.27-8.83,13.78
						c-3.8,5.11-7.68,10.18-11.58,15.21c-1.19-2.37-2.09-4.74-2.69-7.11c-0.3-1.19-0.52-2.37-0.67-3.56l-0.09-0.89l-0.14-0.78
						c-0.09-0.51-0.15-1.03-0.21-1.55c-0.2-2.07-0.12-4.25,0.07-6.96c0.17-2.69,0.43-5.99,0.03-10.05
						c-0.44-4.07-1.77-8.96-4.57-13.69c-1.41-2.35-3.22-4.67-5.53-6.66c-2.3-2-5.14-3.59-8.3-4.59c-3.18-0.96-6.64-1.3-10.19-1.28
						c-3.55,0.02-7.2,0.35-10.93,0.77c-0.93,0.1-1.87,0.21-2.81,0.31l-1.42,0.16l-0.71,0.08c-0.22,0.02-0.56,0.11-0.83,0.17
						c-2.31,0.52-4.6,0.97-6.87,1.54c-4.39,1.06-8.84,2.14-13.37,3.23c-14.42,3.82-28.05,7.85-40.74,12.1
						c-12.69,4.25-24.43,8.78-35.17,13.37c0,0-0.43,0.7-1.21,1.83c-0.78,1.13-1.91,2.68-3.28,4.39c-2.75,3.4-6.36,7.43-9.85,9.86
						c-11.62,6.6-20.08,13.32-25.44,19.21l-0.94,0c-0.16,0-0.31,0-0.49,0.01l-0.58,0.06c-0.78,0.09-1.58,0.19-2.39,0.3l-1.23,0.18
						l-0.62,0.1c-0.28,0.07-0.74,0.21-1.1,0.31c-1.54,0.46-3.08,0.92-4.63,1.38c-3.1,0.91-6.19,1.95-9.29,3.02
						c-3.11,1.04-6.19,2.2-9.27,3.39c-12.34,4.76-24.55,10.45-36.31,16.75c-23.54,12.61-45.19,27.7-63.37,42.26
						c-2.26,1.84-4.48,3.65-6.66,5.43c-2.15,1.82-4.26,3.6-6.33,5.35c-4.11,3.57-8,7.08-11.68,10.38c-3.7,3.28-7.11,6.54-10.29,9.58
						c-3.17,3.05-6.11,5.89-8.8,8.48c-5.31,5.33-9.58,9.71-12.66,12.87c-3.07,3.17-4.92,5.19-5.43,5.66
						c-5.62,5-11.25,9.99-16.82,15.15l-8.38,7.68l-8.35,7.79c-16.08,14.39-34.8,30.51-55.01,47.95
						c-10.22,8.81-20.77,17.9-31.53,27.17c-8.02,7.04-16.12,14.15-24.27,21.3c-4.2,3.6-8.42,7.22-12.65,10.85
						c-2.1,1.81-4.21,3.62-6.32,5.44c-2.1,1.79-4.2,3.7-6.31,5.37c-4.2,3.44-8.4,6.89-12.62,10.34l-6.3,5.2l-3.15,2.61
						c-0.54,0.5-1.02,0.69-1.52,1.02l-1.5,0.91c-4,2.44-8,4.88-12,7.32l-6,3.71l-1.5,0.93c-0.5,0.31-1.02,0.67-1.43,0.79l-2.61,1.08
						c-3.49,1.46-6.98,2.92-10.47,4.37l-5.24,2.22l-1.31,0.56l-1.21,0.42c-0.8,0.28-1.59,0.52-2.4,0.78c-1.6,0.51-3.22,1-4.88,1.46
						c-1.66,0.41-3.33,0.78-5.09,1.07c-3.5,0.56-7.28,0.83-11.36,0.43c-2.04-0.18-4.13-0.52-6.24-1.05
						c-2.11-0.5-4.22-1.17-6.29-2.01c-2.07-0.83-4.08-1.81-6.01-2.91c-1.91-1.12-3.73-2.34-5.45-3.62
						c-6.83-5.23-11.88-11.34-16.03-17.53c-2.07-3.11-3.91-6.27-5.57-9.45c-0.83-1.59-1.6-3.18-2.34-4.78
						c-0.36-0.8-0.73-1.59-1.07-2.39l-0.51-1.19l-0.45-1.26c-1.2-3.36-2.45-6.68-3.77-9.96l-0.5-1.23
						c-0.15-0.43-0.25-0.91-0.38-1.37c-0.25-0.92-0.5-1.84-0.75-2.75c-0.51-1.83-1.03-3.65-1.57-5.47l-0.35-2.86l-0.17-1.43
						l-0.09-0.72c-0.01-0.25-0.01-0.52-0.01-0.78l-0.03-6.31l-0.04-6.31l-0.02-3.16c-0.03-0.51,0.04-1.08,0.1-1.65l0.17-1.69
						c0.45-4.52,0.89-9.05,1.34-13.58c0.15-2.23,0.64-4.63,0.99-6.96l1.13-7.04c1.31,13.07,6.39,14.08,12.53,8.76
						c1.57-1.34,3.2-3.07,4.98-5.15c1.83-2.1,3.77-4.52,5.8-7.19c4.09-5.34,8.36-11.66,13.4-18.39c2.49-3.35,4.92-6.8,7.58-10.25
						c2.56-3.24,5.28-6.69,8.14-10.32c5.6-6.8,11.25-13.33,16.9-19.27c1.39-1.47,2.79-2.97,4.22-4.49c1.44-1.54,2.9-3.11,4.38-4.69
						c2.87-3.19,5.95-6.35,8.92-9.61c6-6.5,12.18-13.12,18.29-19.83c1.47-1.93,3.59-4.28,5.97-6.92c1.21-1.31,2.47-2.7,3.84-4.11
						c1.38-1.41,2.82-2.85,4.3-4.3c1.48-1.45,2.98-2.92,4.52-4.37c1.56-1.44,3.13-2.86,4.69-4.25c1.56-1.38,3.1-2.73,4.61-4.01
						c1.54-1.27,3.04-2.48,4.47-3.6c5.71-4.5,10.58-7.55,12.79-7.75c2.23-0.19,1.8,2.47-2.68,9.53
						c-8.56,12.13-17.71,24.91-26.74,38.22c-2.2,3.34-4.52,6.68-6.74,10.08c-1.1,1.7-2.21,3.4-3.32,5.11
						c-1.11,1.71-2.26,3.41-3.31,5.15c-1.08,1.73-2.17,3.46-3.26,5.2l-1.65,2.61l-1.57,2.63l-3.16,5.28l-0.8,1.32l-0.4,0.66
						l-0.26,0.39l-1.02,1.52l-2.1,3.12c-0.74,1.08-1.34,2.06-2.03,3.13l-2.06,3.23c-0.68,1.11-1.34,2.25-2.02,3.41
						c-0.69,1.19-1.39,2.37-2.08,3.56c-0.67,1.25-1.35,2.5-2.02,3.74c-0.67,1.28-1.4,2.56-2.05,3.89c-0.66,1.36-1.33,2.72-1.99,4.07
						c-5.32,11.05-10.29,23.92-14.3,37.9c-2.21,6.96-3.64,14.27-4.07,21.53c-0.43,7.22,0.1,14.51,2.24,20.7
						c1.06,3.09,2.55,5.82,4.33,7.99c1.79,2.15,3.83,3.75,5.87,4.78c4.12,2.11,7.98,2.03,11.12,1.44c3.17-0.62,5.84-1.72,8.18-2.75
						c2.32-1.05,4.33-2.01,5.97-2.78C644.72,664.26,646.37,663.48,645.81,663.77z"/>
					<path class="st11" d="M1689.48,819.77c4.13-1,8.27-2,12.41-3l6.21-1.5c2.07-0.51,4.17-0.89,6.26-1.35
						c8.36-1.75,16.73-3.49,25.14-5.25l6.3-1.32c2.1-0.44,4.2-0.9,6.33-1.24c4.24-0.73,8.49-1.46,12.74-2.2
						c8.49-1.47,17.01-2.94,25.57-4.42c-9.12,2.04-18.29,3.9-27.19,5.71c-4.45,0.91-8.83,1.82-13.11,2.7
						c-4.24,1.04-8.38,2.1-12.37,3.16c-7.98,2.13-15.38,4.32-21.87,6.7c-1.62,0.59-3.19,1.2-4.69,1.82
						c-1.5,0.63-2.92,1.34-4.29,2.03c-2.72,1.39-5.18,2.83-7.33,4.33c-8.11,1.23-16.71,3.19-25.54,5.5
						c-2.22,0.55-4.41,1.23-6.63,1.91c-2.21,0.69-4.44,1.38-6.67,2.08c-4.46,1.44-8.95,2.89-13.44,4.34
						c6.4-3.55,13.14-7.03,20.16-10.46c0.88-0.43,1.76-0.85,2.64-1.28c0.89-0.4,1.79-0.8,2.69-1.2c1.81-0.79,3.63-1.58,5.46-2.38
						C1681.95,822.89,1685.69,821.32,1689.48,819.77z"/>
					<path class="st11" d="M1639.72,878.95c-9.2,3.24-18.39,6.46-27.6,9.7c-0.98-2.73,2.64-7.08,8.97-11.22
						c3.16-2.07,7-4.09,11.25-5.83c4.26-1.74,8.93-3.22,13.81-4c-0.91-2.72-5.58-1.3-10.08,0.72c-4.51,1.97-8.89,4.28-9.36,2.91
						c-1.27-3.65,0.71-6.46,4.63-8.82c1.96-1.17,4.4-2.26,7.18-3.21c2.78-0.92,5.89-1.77,9.15-2.58c1.99,6.18,0.54,13.47-3.09,19.76
						c-3.62,6.36-9.4,11.87-16.27,14.27c-6.03,2.13-12.09,4.26-18.11,6.38C1619.67,890.94,1635.6,883.81,1639.72,878.95z"/>
					<path class="st12" d="M1328.02,991.38c-7.26,2.09-14,3.78-20.5,5.22c-6.5,1.43-12.72,2.68-19.06,3.69
						c-12.64,1.98-25.28,3.95-40.45,6.32c3.9-2.78,7.62-5.71,11.27-8.56c3.64-2.87,7.18-5.72,10.63-8.57s6.81-5.69,10.09-8.52
						c3.28-2.82,6.48-5.65,9.58-8.53c6.22-5.73,12.17-11.43,17.92-17.1c5.76-5.67,11.31-11.31,16.75-17.05
						c10.63-3.57,21.24-7.12,31.84-10.67c10.59-3.64,21.16-7.27,31.72-10.89c21.14-7.34,42.24-14.66,63.36-21.99
						c42.29-14.64,84.74-29.31,128.19-42.77c-7.34,3.62-14.49,7.3-21.37,11.02c-1.71,0.94-3.42,1.88-5.1,2.8
						c-1.67,0.97-3.32,1.94-4.96,2.89c-3.26,1.94-6.45,3.89-9.54,5.84c4.41-1.71,8.82-3.42,13.2-5.11
						c4.38-1.67,8.79-3.19,13.12-4.67c8.67-2.94,17.15-5.5,25.23-7.33c-3.21,2.58-5.67,5.22-7.17,8.03c0.02,0.05,0.04,0.1,0.06,0.16
						c-13.01,3.84-23.48,8.07-20.73,15.27c1.03,2.73,17.52-9.62,19.55-4.18c-9.76,2.11-18.79,6.17-25.04,10.56
						c-6.26,4.39-9.81,8.89-8.76,11.59c4.58-1.79,9.17-3.58,13.77-5.38c4.6-1.76,9.22-3.45,13.82-5.18
						c-1.98,2.47-6.96,5.53-12.62,8.87c-5.66,3.38-12.01,6.95-16.78,10.22c-9.9,3.88-19.8,7.73-29.67,11.79
						c-9.87,4.03-19.74,8.05-29.6,12.08c-19.72,8.2-39.41,16.42-59.14,24.79c-19.77,8.35-39.53,16.69-59.27,25.03
						c-9.92,4.15-19.84,8.3-29.76,12.45c-9.98,4.08-19.96,8.17-29.94,12.25C1315.07,1000.98,1321.54,996.18,1328.02,991.38z"/>
				</g>
			</g>
		</g>
	</g>
</g>
</svg>
